<?xml version="1.0" encoding="UTF-8"?>
<!DOCTYPE svg PUBLIC "-//W3C//DTD SVG 1.1//EN" "http://www.w3.org/Graphics/SVG/1.1/DTD/svg11.dtd">
<!-- Creator: CorelDRAW 2020 (64-Bit) -->
<svg xmlns="http://www.w3.org/2000/svg" xml:space="preserve" width="100%" height="100%" version="1.1" style="shape-rendering:geometricPrecision; text-rendering:geometricPrecision; image-rendering:optimizeQuality; fill-rule:evenodd; clip-rule:evenodd"
viewBox="0 0 13914.5 3025"
 xmlns:xlink="http://www.w3.org/1999/xlink"
 xmlns:xodm="http://www.corel.com/coreldraw/odm/2003">
 <defs>
  <style type="text/css">
   <![CDATA[
    .fil1 {fill:#FEFEFE}
    .fil0 {fill:#FEFEFE;fill-rule:nonzero}
   ]]>
  </style>
 </defs>
 <g id="Слой_x0020_1">
  <metadata id="CorelCorpID_0Corel-Layer"/>
  <path class="fil0" d="M4688.83 892.6l199.51 0 -535.74 1254.07 -174.45 0 -535.74 -1254.07 222.17 0 400.76 950.23 400.22 -950.23 23.27 0zm832.04 0l172.52 0 0 1254.07 -207.8 0 0 -1254.07 35.28 0zm1422.97 806.69l-294.84 0 0 447.38 -207.8 0 0 -1254.07 536.43 0c29.71,0 58.64,2.41 86.69,7.17 28.3,4.8 55.38,11.99 81.1,21.47l0.14 0.14c25.76,9.65 49.88,21.33 72.35,34.99 22.83,13.86 43.67,29.51 62.5,46.9l0.28 0.28c18.96,17.81 35.88,37.46 50.76,58.94 14.79,21.34 27.47,44.37 38.02,69.06l0.13 0.27c10.41,24.88 18.24,51.24 23.46,79 5.2,27.68 7.82,56.36 7.82,86.02 0,48.61 -6.84,93.29 -20.51,134.61 -6.73,20.36 -14.99,39.98 -24.71,58.82 -9.61,18.62 -20.66,36.28 -33.11,52.99 -12.41,16.65 -26.33,32.19 -41.74,46.6 -15.32,14.33 -31.8,27.25 -49.42,38.74 -17.69,11.78 -36.19,22.02 -55.38,30.74 -5.73,2.6 -11.55,5.08 -17.46,7.44l295.43 479.89 -241.3 0 -268.84 -447.38zm31.12 -191.17c32.48,0 62.17,-5.12 88.75,-15.34l0 -0.14c13.54,-5.15 26.02,-11.29 37.43,-18.4 11.39,-7.1 21.81,-15.18 31.23,-24.23l0.13 -0.14c9.49,-8.98 18,-18.93 25.44,-29.81 7.52,-10.98 14.04,-22.99 19.47,-36.03l0.13 -0.13c5.32,-12.64 9.35,-26.24 12.06,-40.71 2.72,-14.49 4.07,-30.17 4.07,-46.95 0,-16.22 -1.41,-31.56 -4.21,-46 -2.82,-14.52 -6.98,-28.27 -12.46,-41.24 -5.7,-13.22 -12.41,-25.57 -20.14,-36.89 -7.51,-10.99 -16.04,-21.06 -25.55,-30.09 -9.57,-9.08 -20.19,-17.24 -31.74,-24.45 -11.82,-7.37 -24.6,-13.73 -38.21,-19.05 -13.69,-5.34 -27.85,-9.35 -42.44,-11.99 -14.44,-2.62 -29.98,-3.95 -46.64,-3.95l-323.28 0 0 425.54 325.96 0zm1833.09 361.69l-566.41 0 -117.35 276.86 -221.71 0c177.65,-418.02 355.38,-836 532.91,-1254.07l179.6 0 532.29 1254.07 -221.99 0 -117.34 -276.86zm-485.85 -189.69l405.36 0 -202.32 -476.78 -203.04 476.78zm1453.98 -787.52l171.93 0 0 1062.31 585.82 0 0 191.76 -793.03 0 0 -1254.07 35.28 0zm2172.64 977.21l-566.41 0 -117.35 276.86 -221.71 0c177.65,-418.02 355.38,-836 532.91,-1254.07l179.6 0 532.29 1254.07 -221.99 0 -117.34 -276.86zm-485.85 -189.69l405.36 0 -202.32 -476.78 -203.04 476.78zm1872.83 -334.96l331.88 -452.56 251.87 0 -453.74 604.57 481.16 649.5 -251.53 0 -359.64 -495.76 -359.93 495.76 -251.54 0 481.48 -649.5 -454.07 -604.57 251.89 0 332.17 452.56z"/>
  <g id="_1919508344160">
   <path class="fil1" d="M1544.97 7.13c835.33,0 1512.5,677.17 1512.5,1512.5 0,835.33 -677.17,1512.5 -1512.5,1512.5 -835.33,0 -1512.5,-677.17 -1512.5,-1512.5 0,-835.33 677.17,-1512.5 1512.5,-1512.5zm0 136.5c759.95,0 1376,616.05 1376,1376 0,759.95 -616.05,1376 -1376,1376 -759.95,0 -1376,-616.05 -1376,-1376 0,-759.95 616.05,-1376 1376,-1376z"/>
   <path class="fil1" d="M562.62 2352.64c47.84,-39.39 97.31,-80.49 142.24,-118.24 91.96,-77.26 166.81,-147.32 166.81,-147.32 134.71,67.65 267.89,138.78 402.59,206.43l-160.9 439.98c-215.93,-76.81 -405.33,-209.55 -550.74,-380.85zm2018.26 -67.49c-46.04,62.19 -97.54,120.08 -153.8,172.97 -12.88,-2.54 -23.39,-4.48 -30.06,-5.45 -39.96,-5.84 -48.94,-5.84 -48.94,-5.84l-608.86 -221.36 300.83 -592.7 370.88 510.53 169.95 141.85zm-235.59 243.7c-219.78,174.54 -497.86,278.83 -800.32,278.83 -101.63,0 -200.51,-11.79 -295.34,-34.07l115.56 -468.43 284.68 -1.36 695.42 225.03zm-1420.23 -532.59l372 195.1 11.68 -1316.49 -231.92 200.26 -151.76 921.13zm464.71 203.61l252.35 0.23 332.95 -659.48 -455.52 -1228.58 -104.62 17.51 -25.16 1870.32z"/>
  </g>
 </g>
</svg>
