<svg xmlns="http://www.w3.org/2000/svg" width="25" height="18" viewBox="0 0 25 18" fill="none">
	<g clip-path="url(#clip0_699_55369)">
		<path fill-rule="evenodd" clip-rule="evenodd" d="M0 0H25V18H0V0Z" fill="#F31930"/>
		<path fill-rule="evenodd" clip-rule="evenodd" d="M15.8976 9.28022C15.8976 11.7633 13.7645 13.7761 11.1331 13.7761C8.5017 13.7761 6.36877 11.7632 6.36877 9.28018C6.36877 6.79715 8.50182 4.7843 11.1331 4.7843C13.7645 4.7843 15.8976 6.79719 15.8976 9.28018L15.8976 9.28022Z" fill="white"/>
		<path fill-rule="evenodd" clip-rule="evenodd" d="M16.1358 9.28004C16.1358 11.2664 14.4293 12.8767 12.3243 12.8767C10.2193 12.8767 8.51282 11.2664 8.51282 9.28004C8.51282 7.29366 10.2193 5.68341 12.3243 5.68341C14.4293 5.68341 16.1358 7.29366 16.1358 9.28004Z" fill="#F31830"/>
		<path fill-rule="evenodd" clip-rule="evenodd" d="M16.8253 7.17993L16.7868 8.84186L15.1718 9.26279L16.7638 9.80707L16.7253 11.3311L17.7636 10.141L19.3325 10.6635L18.425 9.38624L19.5325 8.11619L17.8328 8.56612L16.8252 7.17997L16.8253 7.17993Z" fill="white"/>
	</g>
	<defs>
		<clipPath id="clip0_699_55369">
			<rect width="25" height="18" fill="white"/>
		</clipPath>
	</defs>
</svg>
